<?xml version='1.0' encoding='UTF-8' standalone='no'?>
<svg width="576pt" height="432pt" xmlns="http://www.w3.org/2000/svg" viewBox="0 0 576 432" xmlns:xlink="http://www.w3.org/1999/xlink">
 <title>gl2ps_renderer figure</title>
 <desc>
Creator: GL2PS 1.4.0, (C) 1999-2017 C. Geuzaine
For: Octave
CreationDate: Tue Jul 16 10:00:46 2019
</desc>
 <defs/>
 <polygon points="0,0 576,0 576,432 0,432" fill="#ffffff"/>
 <g>
  <polygon points="0,432 576,432 576,0 0,0" fill="#ffffff" shape-rendering="crispEdges"/>
  <clipPath id="cp00576432">
   <polygon points="0,432 576,432 576,0 0,0"/>
  </clipPath>
  <g clip-path="url(#cp00576432)">
   <polygon points="74.88,384.48 521.28,384.48 521.28,32.4 74.88,32.4" fill="#ffffff" shape-rendering="crispEdges"/>
   <polyline stroke-opacity="0.15" stroke-linejoin="miter" points="74.88,384.48 74.88,32.4" stroke-width="0.5" fill="none" stroke="#262626" stroke-dasharray="16,0" stroke-linecap="butt"/>
   <polyline stroke-opacity="0.15" stroke-linejoin="miter" points="138.651,384.48 138.651,32.4" stroke-width="0.5" fill="none" stroke="#262626" stroke-dasharray="16,0" stroke-linecap="butt"/>
   <polyline stroke-opacity="0.15" stroke-linejoin="miter" points="202.423,384.48 202.423,32.4" stroke-width="0.5" fill="none" stroke="#262626" stroke-dasharray="16,0" stroke-linecap="butt"/>
   <polyline stroke-opacity="0.15" stroke-linejoin="miter" points="266.194,384.48 266.194,32.4" stroke-width="0.5" fill="none" stroke="#262626" stroke-dasharray="16,0" stroke-linecap="butt"/>
   <polyline stroke-opacity="0.15" stroke-linejoin="miter" points="329.966,384.48 329.966,32.4" stroke-width="0.5" fill="none" stroke="#262626" stroke-dasharray="16,0" stroke-linecap="butt"/>
   <polyline stroke-opacity="0.15" stroke-linejoin="miter" points="393.737,384.48 393.737,32.4" stroke-width="0.5" fill="none" stroke="#262626" stroke-dasharray="16,0" stroke-linecap="butt"/>
   <polyline stroke-opacity="0.15" stroke-linejoin="miter" points="457.509,384.48 457.509,32.4" stroke-width="0.5" fill="none" stroke="#262626" stroke-dasharray="16,0" stroke-linecap="butt"/>
   <polyline stroke-opacity="0.15" stroke-linejoin="miter" points="521.28,384.48 521.28,32.4" stroke-width="0.5" fill="none" stroke="#262626" stroke-dasharray="16,0" stroke-linecap="butt"/>
   <polyline stroke-linejoin="miter" points="74.88,384.48 74.88,380.015" stroke-width="0.5" fill="none" stroke="#262626" stroke-linecap="butt"/>
   <polyline stroke-linejoin="miter" points="74.88,32.4 74.88,36.865" stroke-width="0.5" fill="none" stroke="#262626" stroke-linecap="butt"/>
   <polyline stroke-linejoin="miter" points="138.651,384.48 138.651,380.015" stroke-width="0.5" fill="none" stroke="#262626" stroke-linecap="butt"/>
   <polyline stroke-linejoin="miter" points="138.651,32.4 138.651,36.865" stroke-width="0.5" fill="none" stroke="#262626" stroke-linecap="butt"/>
   <polyline stroke-linejoin="miter" points="202.423,384.48 202.423,380.015" stroke-width="0.5" fill="none" stroke="#262626" stroke-linecap="butt"/>
   <polyline stroke-linejoin="miter" points="202.423,32.4 202.423,36.865" stroke-width="0.5" fill="none" stroke="#262626" stroke-linecap="butt"/>
   <polyline stroke-linejoin="miter" points="266.194,384.48 266.194,380.015" stroke-width="0.5" fill="none" stroke="#262626" stroke-linecap="butt"/>
   <polyline stroke-linejoin="miter" points="266.194,32.4 266.194,36.865" stroke-width="0.5" fill="none" stroke="#262626" stroke-linecap="butt"/>
   <polyline stroke-linejoin="miter" points="329.966,384.48 329.966,380.015" stroke-width="0.5" fill="none" stroke="#262626" stroke-linecap="butt"/>
   <polyline stroke-linejoin="miter" points="329.966,32.4 329.966,36.865" stroke-width="0.5" fill="none" stroke="#262626" stroke-linecap="butt"/>
   <polyline stroke-linejoin="miter" points="393.737,384.48 393.737,380.015" stroke-width="0.5" fill="none" stroke="#262626" stroke-linecap="butt"/>
   <polyline stroke-linejoin="miter" points="393.737,32.4 393.737,36.865" stroke-width="0.5" fill="none" stroke="#262626" stroke-linecap="butt"/>
   <polyline stroke-linejoin="miter" points="457.509,384.48 457.509,380.015" stroke-width="0.5" fill="none" stroke="#262626" stroke-linecap="butt"/>
   <polyline stroke-linejoin="miter" points="457.509,32.4 457.509,36.865" stroke-width="0.5" fill="none" stroke="#262626" stroke-linecap="butt"/>
   <polyline stroke-linejoin="miter" points="521.28,384.48 521.28,380.015" stroke-width="0.5" fill="none" stroke="#262626" stroke-linecap="butt"/>
   <polyline stroke-linejoin="miter" points="521.28,32.4 521.28,36.865" stroke-width="0.5" fill="none" stroke="#262626" stroke-linecap="butt"/>
   <text xml:space="preserve" font-style="normal" font-size="10" font-weight="normal" font-family="FreeSans" transform="translate(61.38,399.982) rotate(-0,13.5,-8)">
    <tspan fill="rgb(38,38,38)" x="0 3 9 15 21 " y="-0">-1400</tspan>
   </text>
   <text xml:space="preserve" font-style="normal" font-size="10" font-weight="normal" font-family="FreeSans" transform="translate(125.151,399.982) rotate(-0,13.5,-8)">
    <tspan fill="rgb(38,38,38)" x="0 3 9 15 21 " y="-0">-1200</tspan>
   </text>
   <text xml:space="preserve" font-style="normal" font-size="10" font-weight="normal" font-family="FreeSans" transform="translate(188.923,399.982) rotate(-0,13.5,-8)">
    <tspan fill="rgb(38,38,38)" x="0 3 9 15 21 " y="-0">-1000</tspan>
   </text>
   <text xml:space="preserve" font-style="normal" font-size="10" font-weight="normal" font-family="FreeSans" transform="translate(255.694,399.982) rotate(-0,10.5,-8)">
    <tspan fill="rgb(38,38,38)" x="0 3 9 15 " y="-0">-800</tspan>
   </text>
   <text xml:space="preserve" font-style="normal" font-size="10" font-weight="normal" font-family="FreeSans" transform="translate(319.466,399.982) rotate(-0,10.5,-8)">
    <tspan fill="rgb(38,38,38)" x="0 3 9 15 " y="-0">-600</tspan>
   </text>
   <text xml:space="preserve" font-style="normal" font-size="10" font-weight="normal" font-family="FreeSans" transform="translate(383.237,399.982) rotate(-0,10.5,-8)">
    <tspan fill="rgb(38,38,38)" x="0 3 9 15 " y="-0">-400</tspan>
   </text>
   <text xml:space="preserve" font-style="normal" font-size="10" font-weight="normal" font-family="FreeSans" transform="translate(447.009,399.982) rotate(-0,10.5,-8)">
    <tspan fill="rgb(38,38,38)" x="0 3 9 15 " y="-0">-200</tspan>
   </text>
   <text xml:space="preserve" font-style="normal" font-size="10" font-weight="normal" font-family="FreeSans" transform="translate(518.28,399.982) rotate(-0,3,-8)">
    <tspan fill="rgb(38,38,38)" x="0 " y="-0">0</tspan>
   </text>
   <polyline stroke-opacity="0.15" stroke-linejoin="miter" points="74.88,384.48 521.28,384.48" stroke-width="0.5" fill="none" stroke="#262626" stroke-dasharray="16,0" stroke-linecap="butt"/>
   <polyline stroke-opacity="0.15" stroke-linejoin="miter" points="74.88,325.8 521.28,325.8" stroke-width="0.5" fill="none" stroke="#262626" stroke-dasharray="16,0" stroke-linecap="butt"/>
   <polyline stroke-opacity="0.15" stroke-linejoin="miter" points="74.88,267.12 521.28,267.12" stroke-width="0.5" fill="none" stroke="#262626" stroke-dasharray="16,0" stroke-linecap="butt"/>
   <polyline stroke-opacity="0.15" stroke-linejoin="miter" points="74.88,208.44 521.28,208.44" stroke-width="0.5" fill="none" stroke="#262626" stroke-dasharray="16,0" stroke-linecap="butt"/>
   <polyline stroke-opacity="0.15" stroke-linejoin="miter" points="74.88,149.76 521.28,149.76" stroke-width="0.5" fill="none" stroke="#262626" stroke-dasharray="16,0" stroke-linecap="butt"/>
   <polyline stroke-opacity="0.15" stroke-linejoin="miter" points="74.88,91.08 521.28,91.08" stroke-width="0.5" fill="none" stroke="#262626" stroke-dasharray="16,0" stroke-linecap="butt"/>
   <polyline stroke-opacity="0.15" stroke-linejoin="miter" points="74.88,32.4 521.28,32.4" stroke-width="0.5" fill="none" stroke="#262626" stroke-dasharray="16,0" stroke-linecap="butt"/>
   <polyline stroke-linejoin="miter" points="74.88,384.48 79.348,384.48" stroke-width="0.5" fill="none" stroke="#262626" stroke-linecap="butt"/>
   <polyline stroke-linejoin="miter" points="521.28,384.48 516.812,384.48" stroke-width="0.5" fill="none" stroke="#262626" stroke-linecap="butt"/>
   <polyline stroke-linejoin="miter" points="74.88,325.8 79.348,325.8" stroke-width="0.5" fill="none" stroke="#262626" stroke-linecap="butt"/>
   <polyline stroke-linejoin="miter" points="521.28,325.8 516.812,325.8" stroke-width="0.5" fill="none" stroke="#262626" stroke-linecap="butt"/>
   <polyline stroke-linejoin="miter" points="74.88,267.12 79.348,267.12" stroke-width="0.5" fill="none" stroke="#262626" stroke-linecap="butt"/>
   <polyline stroke-linejoin="miter" points="521.28,267.12 516.812,267.12" stroke-width="0.5" fill="none" stroke="#262626" stroke-linecap="butt"/>
   <polyline stroke-linejoin="miter" points="74.88,208.44 79.348,208.44" stroke-width="0.5" fill="none" stroke="#262626" stroke-linecap="butt"/>
   <polyline stroke-linejoin="miter" points="521.28,208.44 516.812,208.44" stroke-width="0.5" fill="none" stroke="#262626" stroke-linecap="butt"/>
   <polyline stroke-linejoin="miter" points="74.88,149.76 79.348,149.76" stroke-width="0.5" fill="none" stroke="#262626" stroke-linecap="butt"/>
   <polyline stroke-linejoin="miter" points="521.28,149.76 516.812,149.76" stroke-width="0.5" fill="none" stroke="#262626" stroke-linecap="butt"/>
   <polyline stroke-linejoin="miter" points="74.88,91.08 79.348,91.08" stroke-width="0.5" fill="none" stroke="#262626" stroke-linecap="butt"/>
   <polyline stroke-linejoin="miter" points="521.28,91.08 516.812,91.08" stroke-width="0.5" fill="none" stroke="#262626" stroke-linecap="butt"/>
   <polyline stroke-linejoin="miter" points="74.88,32.4 79.348,32.4" stroke-width="0.5" fill="none" stroke="#262626" stroke-linecap="butt"/>
   <polyline stroke-linejoin="miter" points="521.28,32.4 516.812,32.4" stroke-width="0.5" fill="none" stroke="#262626" stroke-linecap="butt"/>
   <text xml:space="preserve" font-style="normal" font-size="10" font-weight="normal" font-family="FreeSans" transform="translate(42.8755,388.48) rotate(-0,27,-4)">
    <tspan fill="rgb(38,38,38)" x="0 3 9 15 21 " y="-0">-1500</tspan>
   </text>
   <text xml:space="preserve" font-style="normal" font-size="10" font-weight="normal" font-family="FreeSans" transform="translate(42.8755,329.8) rotate(-0,27,-4)">
    <tspan fill="rgb(38,38,38)" x="0 3 9 15 21 " y="-0">-1000</tspan>
   </text>
   <text xml:space="preserve" font-style="normal" font-size="10" font-weight="normal" font-family="FreeSans" transform="translate(48.8755,271.12) rotate(-0,21,-4)">
    <tspan fill="rgb(38,38,38)" x="0 3 9 15 " y="-0">-500</tspan>
   </text>
   <text xml:space="preserve" font-style="normal" font-size="10" font-weight="normal" font-family="FreeSans" transform="translate(63.8755,212.44) rotate(-0,6,-4)">
    <tspan fill="rgb(38,38,38)" x="0 " y="-0">0</tspan>
   </text>
   <text xml:space="preserve" font-style="normal" font-size="10" font-weight="normal" font-family="FreeSans" transform="translate(51.8755,153.76) rotate(-0,18,-4)">
    <tspan fill="rgb(38,38,38)" x="0 6 12 " y="-0">500</tspan>
   </text>
   <text xml:space="preserve" font-style="normal" font-size="10" font-weight="normal" font-family="FreeSans" transform="translate(45.8755,95.08) rotate(-0,24,-4)">
    <tspan fill="rgb(38,38,38)" x="0 6 12 18 " y="-0">1000</tspan>
   </text>
   <text xml:space="preserve" font-style="normal" font-size="10" font-weight="normal" font-family="FreeSans" transform="translate(45.8755,36.4) rotate(-0,24,-4)">
    <tspan fill="rgb(38,38,38)" x="0 6 12 18 " y="-0">1500</tspan>
   </text>
   <polyline stroke-linejoin="miter" points="74.88,384.48 521.28,384.48" stroke-width="0.5" fill="none" stroke="#262626" stroke-dasharray="16,0" stroke-linecap="square"/>
   <polyline stroke-linejoin="miter" points="74.88,32.4 521.28,32.4" stroke-width="0.5" fill="none" stroke="#262626" stroke-dasharray="16,0" stroke-linecap="square"/>
   <polyline stroke-linejoin="miter" points="74.88,384.48 74.88,32.4" stroke-width="0.5" fill="none" stroke="#262626" stroke-dasharray="16,0" stroke-linecap="square"/>
   <polyline stroke-linejoin="miter" points="521.28,384.48 521.28,32.4" stroke-width="0.5" fill="none" stroke="#262626" stroke-dasharray="16,0" stroke-linecap="square"/>
   <text xml:space="preserve" font-style="normal" font-size="11" font-weight="bold" font-family="FreeSans" transform="translate(228.08,22.4) rotate(-0,70,0)">
    <tspan fill="rgb(0,0,0)" x="0 8 11 17 24 28 34 44 50 53 60 66 69 76 83 86 93 99 102 108 111 117 123 127 134 " y="-3">Diagrama de polos y ceros</tspan>
   </text>
   <text xml:space="preserve" font-style="normal" font-size="11" font-weight="normal" font-family="FreeSans" transform="translate(26.3755,208.44) rotate(-90,11.5,0)">
    <tspan fill="rgb(38,38,38)" x="0 3 12 15 20 " y="-2">Im[z]</tspan>
   </text>
   <text xml:space="preserve" font-style="normal" font-size="11" font-weight="normal" font-family="FreeSans" transform="translate(285.58,415.982) rotate(-0,12.5,-11)">
    <tspan fill="rgb(38,38,38)" x="0 8 14 17 22 " y="-2">Re[z]</tspan>
   </text>
   <polyline stroke-linejoin="miter" points="91.2434,47.0334 101.243,57.0334" stroke-width="5" fill="none" stroke="#0071bc" stroke-linecap="square"/>
   <polyline stroke-linejoin="miter" points="91.2434,57.0334 101.243,47.0334" stroke-width="5" fill="none" stroke="#0071bc" stroke-linecap="square"/>
   <polyline stroke-linejoin="miter" points="91.2434,359.847 101.243,369.847" stroke-width="5" fill="none" stroke="#0071bc" stroke-linecap="square"/>
   <polyline stroke-linejoin="miter" points="91.2434,369.847 101.243,359.847" stroke-width="5" fill="none" stroke="#0071bc" stroke-linecap="square"/>
   <polyline stroke-linejoin="round" points="526.28,208.44 525.785,210.609 524.397,212.349 522.393,213.315 520.167,213.315 518.163,212.349 516.775,210.609 516.28,208.44 516.775,206.271 518.163,204.531 520.167,203.565 522.393,203.565 524.397,204.531 525.785,206.271 526.28,208.44 525.785,210.609 524.397,212.349 522.393,213.315 520.167,213.315 518.163,212.349 516.775,210.609 516.28,208.44 516.775,206.271 518.163,204.531 520.167,203.565 522.393,203.565 524.397,204.531 525.785,206.271 526.28,208.44" stroke-width="5" fill="none" stroke="#0071bc" stroke-linecap="round"/>
   <text xml:space="preserve" font-style="normal" font-size="10" font-weight="normal" font-family="FreeSans" transform="translate(104.744,56.5334) rotate(-0,-0,-4.5)">
    <tspan fill="rgb(0,0,0)" x="0 3 9 15 21 27 33 39 45 51 57 60 66 72 78 84 " y="-0">-1333+1332.7081i</tspan>
   </text>
   <text xml:space="preserve" font-style="normal" font-size="10" font-weight="normal" font-family="FreeSans" transform="translate(104.744,369.347) rotate(-0,-0,-4.5)">
    <tspan fill="rgb(0,0,0)" x="0 3 9 15 21 27 30 36 42 48 54 57 63 69 75 81 " y="-0">-1333-1332.7081i</tspan>
   </text>
   <text xml:space="preserve" font-style="normal" font-size="10" font-weight="normal" font-family="FreeSans" transform="translate(489.394,212.94) rotate(-0,-0,-4.5)">
    <tspan fill="rgb(0,0,0)" x="0 6 12 18 " y="-0">0+0i</tspan>
   </text>
  </g>
 </g>
</svg>
